<svg width="21" height="21" viewBox="0 0 21 21" fill="none" xmlns="http://www.w3.org/2000/svg">
<g id="exclamation-circle-solid 1" clip-path="url(#clip0_401_961)">
<path id="Vector" d="M20.8887 10.2222C20.8887 15.7462 16.4111 20.2222 10.8887 20.2222C5.36621 20.2222 0.888672 15.7462 0.888672 10.2222C0.888672 4.70132 5.36621 0.222168 10.8887 0.222168C16.4111 0.222168 20.8887 4.70132 20.8887 10.2222ZM10.8887 12.2383C9.86428 12.2383 9.03383 13.0687 9.03383 14.0931C9.03383 15.1175 9.86428 15.948 10.8887 15.948C11.9131 15.948 12.7435 15.1175 12.7435 14.0931C12.7435 13.0687 11.9131 12.2383 10.8887 12.2383ZM9.12766 5.57112L9.42678 11.055C9.44077 11.3116 9.65295 11.5125 9.90992 11.5125H11.8674C12.1244 11.5125 12.3366 11.3116 12.3506 11.055L12.6497 5.57112C12.6648 5.29394 12.4441 5.06088 12.1665 5.06088H9.61077C9.33319 5.06088 9.11254 5.29394 9.12766 5.57112Z" fill="white"/>
</g>
<defs>
<clipPath id="clip0_401_961">
<rect width="20" height="20" fill="white" transform="translate(0.888672 0.222168)"/>
</clipPath>
</defs>
</svg>
